<?xml version="1.0" standalone="no"?>
<!DOCTYPE svg PUBLIC "-//W3C//DTD SVG 20010904//EN"
 "http://www.w3.org/TR/2001/REC-SVG-20010904/DTD/svg10.dtd">
<svg version="1.0" xmlns="http://www.w3.org/2000/svg"
 width="125.000000pt" height="125.000000pt" viewBox="0 0 125.000000 125.000000"
 preserveAspectRatio="xMidYMid meet">
<metadata>
Created by potrace 1.11, written by Peter Selinger 2001-2013
</metadata>
<g transform="translate(0.000000,125.000000) scale(0.100000,-0.100000)"
fill="#000000" stroke="none">
<path d="M548 1162 c-35 -8 -87 -30 -118 -50 -58 -36 -130 -108 -130 -129 0
-7 -3 -13 -7 -13 -11 0 -41 -78 -47 -120 -2 -19 -5 -35 -6 -35 -1 0 -3 -18 -4
-41 0 -22 -7 -48 -13 -56 -13 -15 -11 -245 2 -298 20 -80 26 -214 13 -295 -11
-70 -3 -75 125 -75 62 0 118 4 126 9 13 8 11 67 -5 176 l-4 30 27 -32 c25 -28
52 -61 111 -133 l20 -24 21 24 c24 28 128 165 151 200 8 12 22 32 31 44 63 84
145 231 170 307 39 117 35 192 -16 296 -48 97 -151 187 -240 209 -81 21 -133
22 -207 6z m177 -108 c111 -37 179 -135 178 -254 -1 -155 -133 -279 -284 -265
-85 8 -95 16 -97 79 0 30 3 58 8 61 6 4 10 2 10 -3 0 -11 68 -32 104 -32 78 0
149 70 152 150 6 126 -110 206 -228 157 -62 -26 -115 -135 -85 -174 7 -9 5
-13 -7 -14 -29 -3 -34 -4 -42 -11 -4 -5 -18 -8 -30 -8 -60 0 -38 160 32 236
81 87 183 114 289 78z"/>
</g>
</svg>
